<svg xmlns="http://www.w3.org/2000/svg" xmlns:xlink="http://www.w3.org/1999/xlink" width="20" height="20" viewBox="0 0 20 20"><defs><style>.a{fill:#e43959;}.b{clip-path:url(#a);}</style><clipPath id="a"><rect class="a" width="20" height="20" transform="translate(176 762)"/></clipPath></defs><g class="b" transform="translate(-176 -762)"><g transform="translate(176 762)"><path class="a" d="M5.273,14.141H.586A.586.586,0,0,0,0,14.727v4.687A.586.586,0,0,0,.586,20H5.273a.586.586,0,0,0,.586-.586V14.727A.586.586,0,0,0,5.273,14.141Zm-.586,1.172v1.172H1.172V15.312Zm0,3.516H1.172V17.656H4.687Zm0,0"/><path class="a" d="M12.344,11.8H7.656a.586.586,0,0,0-.586.586v7.031A.586.586,0,0,0,7.656,20h4.687a.586.586,0,0,0,.586-.586V12.383A.586.586,0,0,0,12.344,11.8Zm-4.1,3.516h3.516v1.172H8.242Zm3.516-2.344v1.172H8.242V12.969Zm0,5.859H8.242V17.656h3.516Zm0,0"/><path class="a" d="M19.414,7.109H14.727a.586.586,0,0,0-.586.586V19.414a.586.586,0,0,0,.586.586h4.687A.586.586,0,0,0,20,19.414V7.7A.586.586,0,0,0,19.414,7.109Zm-4.1,7.031V12.969h3.516v1.172ZM18.828,11.8H15.312V10.625h3.516Zm-3.516,3.516h3.516v1.172H15.312Zm3.516-7.031V9.453H15.312V8.281Zm0,10.547H15.312V17.656h3.516Zm0,0"/><path class="a" d="M2.969,10.586a.584.584,0,0,0,.414-.172L7.656,6.141,9.586,8.07a.586.586,0,0,0,.83,0l6.03-6.063V2.93a.586.586,0,0,0,1.172,0V.586h0A.586.586,0,0,0,17.048,0h-2.36a.586.586,0,0,0,0,1.172h.935L10,6.826,8.071,4.9a.586.586,0,0,0-.829,0L2.554,9.586a.586.586,0,0,0,.414,1Zm0,0"/></g></g></svg>