<svg xmlns="http://www.w3.org/2000/svg" xmlns:xlink="http://www.w3.org/1999/xlink" width="20" height="20" viewBox="0 0 20 20"><defs><style>.a,.c{fill:#ec584c;}.a{stroke:#707070;}.b{clip-path:url(#a);}</style><clipPath id="a"><rect class="a" width="20" height="20" transform="translate(330 231)"/></clipPath></defs><g class="b" transform="translate(-330 -231)"><g transform="translate(331.049 232.015)"><path class="c" d="M.968,13.243.951,16.553a.719.719,0,0,0,.2.509.68.68,0,0,0,.492.2l3.294-.017a.68.68,0,0,0,.492-.2L16.808,5.671a.717.717,0,0,0,0-1l-3.26-3.294a.717.717,0,0,0-1,0L10.272,3.667l-9.1,9.083a.756.756,0,0,0-.2.492ZM13.056,2.869l2.292,2.292-1.29,1.29L11.766,4.16l1.29-1.29ZM2.377,13.548l8.387-8.387,2.292,2.292-8.387,8.37L2.36,15.84l.017-2.292Z"/></g></g></svg>