<svg xmlns="http://www.w3.org/2000/svg" xmlns:xlink="http://www.w3.org/1999/xlink" width="20" height="20" viewBox="0 0 20 20"><defs><style>.a{fill:#595364;}.b{clip-path:url(#a);}</style><clipPath id="a"><rect class="a" width="20" height="20" transform="translate(45 762)"/></clipPath></defs><g class="b" transform="translate(-45 -762)"><g transform="translate(45 762.598)"><g transform="translate(0)"><path class="a" d="M18.069,14.718a.568.568,0,0,0-.576.577v7.879H13.406V19.957a.569.569,0,0,0-.556-.566H9.894a.583.583,0,0,0-.587.566v3.217H5.23V15.557a.566.566,0,0,0-1.132,0v8.195a.56.56,0,0,0,.555.557h5.24a.56.56,0,0,0,.555-.557V20.534h1.824v3.217a.565.565,0,0,0,.576.557h5.219a.56.56,0,0,0,.555-.557V15.3A.563.563,0,0,0,18.069,14.718Z" transform="translate(-1.366 -5.504)"/><path class="a" d="M19.837,10.561,15.288,5.993V2.878A.576.576,0,0,0,14.7,2.3a.563.563,0,0,0-.556.575V4.85L10.394,1.076A.551.551,0,0,0,10.006.9a.57.57,0,0,0-.409.179L.175,10.5a.54.54,0,0,0,0,.8.54.54,0,0,0,.8,0l9.034-9.013,9.013,9.1a.557.557,0,0,0,.409.148.633.633,0,0,0,.409-.148A.6.6,0,0,0,19.837,10.561Z" transform="translate(0 -0.897)"/></g></g></g></svg>