<svg xmlns="http://www.w3.org/2000/svg" xmlns:xlink="http://www.w3.org/1999/xlink" width="20" height="20" viewBox="0 0 20 20"><defs><style>.a{fill:#595364;}.b{clip-path:url(#a);}</style><clipPath id="a"><rect class="a" width="20" height="20" transform="translate(303 762)"/></clipPath></defs><g class="b" transform="translate(-303 -762)"><g transform="translate(303 762)"><path class="a" d="M9.928,10.777h.133a3.822,3.822,0,0,0,2.92-1.263c1.595-1.8,1.329-4.879,1.3-5.173A4.225,4.225,0,0,0,12.272.584,4.6,4.6,0,0,0,10.043,0h-.07A4.612,4.612,0,0,0,7.745.567,4.228,4.228,0,0,0,5.711,4.34c-.029.294-.294,3.375,1.3,5.173A3.806,3.806,0,0,0,9.928,10.777ZM6.817,4.444c0-.012,0-.025,0-.033.137-2.97,2.245-3.288,3.148-3.288h.05c1.118.025,3.019.48,3.148,3.288a.081.081,0,0,0,0,.033c0,.029.294,2.845-1.023,4.328a2.715,2.715,0,0,1-2.133.886H9.973a2.706,2.706,0,0,1-2.129-.886C6.531,7.3,6.813,4.469,6.817,4.444Z"/><path class="a" d="M18.5,15.887v-.012c0-.033,0-.066,0-.1-.025-.82-.079-2.738-1.876-3.351l-.041-.012a11.95,11.95,0,0,1-3.438-1.566.559.559,0,1,0-.642.915,12.9,12.9,0,0,0,3.781,1.727c.965.344,1.073,1.375,1.1,2.319a.832.832,0,0,0,0,.1,7.518,7.518,0,0,1-.087,1.28,15.242,15.242,0,0,1-7.3,1.7,15.33,15.33,0,0,1-7.306-1.7,7.117,7.117,0,0,1-.087-1.28c0-.033,0-.066,0-.1.029-.944.137-1.976,1.1-2.319A13.02,13.02,0,0,0,7.5,11.754a.559.559,0,1,0-.642-.915A11.819,11.819,0,0,1,3.417,12.4l-.041.012c-1.8.617-1.851,2.535-1.876,3.351a.832.832,0,0,1,0,.1v.012a6.351,6.351,0,0,0,.211,1.876.531.531,0,0,0,.215.261A15.665,15.665,0,0,0,10.006,20a15.713,15.713,0,0,0,8.084-1.98.554.554,0,0,0,.215-.261A6.663,6.663,0,0,0,18.5,15.887Z"/></g></g></svg>